<?xml version="1.0" encoding="UTF-8"?>
<!DOCTYPE svg PUBLIC "-//W3C//DTD SVG 1.1//EN" "http://www.w3.org/Graphics/SVG/1.1/DTD/svg11.dtd">
<!-- Creator: CorelDRAW 2020 (64 Bit) -->
<svg xmlns="http://www.w3.org/2000/svg" xml:space="preserve" width="140mm" height="279.4mm" version="1.1" style="shape-rendering:geometricPrecision; text-rendering:geometricPrecision; image-rendering:optimizeQuality; fill-rule:evenodd; clip-rule:evenodd"
viewBox="0 0 14000 27940"
 xmlns:xlink="http://www.w3.org/1999/xlink"
 xmlns:xodm="http://www.corel.com/coreldraw/odm/2003">
 <defs>
  <style type="text/css">
   <![CDATA[
    .fil1 {fill:white}
    .fil0 {fill:black;fill-rule:nonzero}
   ]]>
  </style>
 </defs>
 <g id="Camada_x0020_1">
  <metadata id="CorelCorpID_0Corel-Layer"/>
  <g id="_2406419690240">
   <g>
    <polygon class="fil0" points="10045.54,1201.62 767.09,14153.37 10045.54,14153.37 "/>
    <path id="1" class="fil1" d="M10045.54 1201.62l-9278.45 12951.75 9278.45 0 0 -12951.75zm-9737.06 12623.23l9267.16 -12935.99c101.18,-151.72 273.86,-251.68 469.9,-251.68 311.73,0 564.44,252.71 564.44,564.44l0 12951.75c0,311.73 -252.71,564.44 -564.44,564.44l-9278.45 0 0 -0.29c-113.89,0.1 -228.87,-34.16 -328.52,-105.54 -253.28,-181.43 -311.52,-533.85 -130.09,-787.13z"/>
   </g>
   <g>
    <polygon class="fil0" points="3950.6,26560.94 13229.05,13609.19 3950.6,13609.19 "/>
    <path id="1" class="fil1" d="M3950.6 26560.94l9278.45 -12951.75 -9278.45 0 0 12951.75zm9565.08 -12746.42l-9271.37 12941.87c-63.24,94.84 -171.17,157.33 -293.71,157.33 -194.83,0 -352.78,-157.95 -352.78,-352.78l0 -12951.75c0,-194.83 157.95,-352.78 352.78,-352.78l9278.45 0 0 0.18c71.18,-0.06 143.05,21.36 205.33,65.97 158.3,113.4 194.7,333.66 81.3,491.96z"/>
   </g>
  </g>
 </g>
</svg>
