<svg width="34" height="27" viewBox="0 0 34 27" fill="none" xmlns="http://www.w3.org/2000/svg">
<path d="M8.5 8.4375C8.67 8.4375 8.82937 8.49551 8.89312 8.65371L12.7181 17.935C12.8084 18.1986 12.7022 18.4412 12.4844 18.5309C12.2666 18.6205 12.0222 18.515 11.9319 18.2988L11.1722 16.4531H5.82781L5.06813 18.2988C4.97941 18.515 4.73131 18.6205 4.51403 18.5309C4.29675 18.4412 4.19263 18.1986 4.28188 17.935L8.10688 8.65371C8.17063 8.49551 8.33 8.4375 8.5 8.4375ZM6.17844 15.6094H10.8216L8.5 9.97207L6.17844 15.6094ZM14.45 8.85938C14.45 8.62734 14.6413 8.4375 14.875 8.4375H17.6375C19.1622 8.4375 20.4 9.66621 20.4 11.1797C20.4 12.0076 20.0334 12.7459 19.4491 13.2469C20.5009 13.6371 21.25 14.6443 21.25 15.8203C21.25 17.3338 20.0122 18.5625 18.4875 18.5625H14.875C14.6413 18.5625 14.45 18.3727 14.45 18.1406V8.85938ZM15.3 13.0781H17.6375C18.6947 13.0781 19.55 12.2291 19.55 11.1797C19.55 10.1303 18.6947 9.28125 17.6375 9.28125H15.3V13.0781ZM15.3 13.9219V17.7188H18.4875C19.5447 17.7188 20.4 16.8697 20.4 15.8203C20.4 14.7709 19.5447 13.9219 18.4875 13.9219H15.3ZM0 6.75C0 4.88584 1.52203 3.375 3.4 3.375H30.6C32.4753 3.375 34 4.88584 34 6.75V20.25C34 22.1115 32.4753 23.625 30.6 23.625H3.4C1.52203 23.625 0 22.1115 0 20.25V6.75ZM0.85 6.75V20.25C0.85 21.6475 1.99166 22.7812 3.4 22.7812H30.6C32.0078 22.7812 33.15 21.6475 33.15 20.25V6.75C33.15 5.35254 32.0078 4.21875 30.6 4.21875H3.4C1.99166 4.21875 0.85 5.35254 0.85 6.75Z" fill="black"/>
</svg>
