<svg width="40" height="40" viewBox="0 0 40 40" fill="none" xmlns="http://www.w3.org/2000/svg">
<g clip-path="url(#clip0_4_232)">
<path d="M39.9297 19.9297C39.9297 20.9297 39.334 21.8344 38.4133 22.2273L3.48438 37.2969C3.16704 37.4336 2.83251 37.4995 2.50079 37.4995C1.82696 37.4995 1.16563 37.2261 0.68204 36.7144C-0.038194 35.9514 -0.203897 34.8198 0.26454 33.8808L6.01923 22.373L24.9333 20.0003L6.01798 17.625L0.26329 6.11719C-0.204913 5.17969 -0.0389127 4.04766 0.681259 3.28516C1.40392 2.52219 2.52188 2.28906 3.4836 2.70289L38.4844 17.7031C39.4063 18.0938 39.9297 19 39.9297 19.9297Z" fill="black"/>
</g>
<defs>
<clipPath id="clip0_4_232">
<rect width="40" height="40" fill="white"/>
</clipPath>
</defs>
</svg>
