<svg width="28" height="28" viewBox="0 0 28 28" fill="none" xmlns="http://www.w3.org/2000/svg">
<path d="M11.632 6.38203C11.7961 6.21797 12.0203 6.125 12.25 6.125H15.75C15.9797 6.125 16.2039 6.21797 16.368 6.38203L16.9859 7H19.25C19.7312 7 20.125 7.39375 20.125 7.875C20.125 8.35625 19.7312 8.75 19.25 8.75H8.75C8.26875 8.75 7.875 8.35625 7.875 7.875C7.875 7.39375 8.26875 7 8.75 7H11.0141L11.632 6.38203ZM19.25 10.5L18.5062 19.3977C18.4352 20.3 17.675 21 16.7672 21H11.2328C10.325 21 9.56484 20.3 9.49375 19.3977L8.75 10.5H19.25Z" fill="black"/>
<path opacity="0.4" d="M0 14C0 6.26719 6.26719 0 14 0C21.7328 0 28 6.26719 28 14C28 21.7328 21.7328 28 14 28C6.26719 28 0 21.7328 0 14ZM8.75 7C8.26875 7 7.875 7.39375 7.875 7.875C7.875 8.35625 8.26875 8.75 8.75 8.75H19.25C19.7313 8.75 20.125 8.35625 20.125 7.875C20.125 7.39375 19.7313 7 19.25 7H16.9859L16.368 6.38203C16.2039 6.21797 15.9797 6.125 15.75 6.125H12.25C12.0203 6.125 11.7961 6.21797 11.632 6.38203L11.0141 7H8.75ZM8.75 10.5L9.49375 19.3977C9.56484 20.3 10.325 21 11.2328 21H16.7672C17.675 21 18.4352 20.3 18.5063 19.3977L19.25 10.5H8.75Z" fill="#B62424"/>
</svg>
