<svg width="24" height="27" viewBox="0 0 24 27" fill="none" xmlns="http://www.w3.org/2000/svg">
<path d="M23.5714 8.01562H17.7536L18.8502 2.18847C18.892 1.95944 18.7397 1.73859 18.507 1.69577C18.2626 1.64798 18.05 1.80451 18.0064 2.03359L16.8804 8.01562H8.75357L9.85018 2.18847C9.89464 1.9596 9.73929 1.73917 9.50893 1.69593C9.2625 1.64847 9.04821 1.80509 9.00536 2.03396L7.88036 8.01562H2.14286C1.90682 8.01562 1.71429 8.20383 1.71429 8.43617C1.71429 8.66852 1.90682 8.85931 2.14286 8.85931H7.71964L5.97857 18.1406H0.428571C0.192536 18.1406 0 18.3296 0 18.5619C0 18.7942 0.192536 18.9843 0.428571 18.9843H5.81786L4.72125 24.8114C4.67939 25.0404 4.83171 25.2613 5.06443 25.3041C5.09089 25.265 5.11768 25.3125 5.14286 25.3125C5.34541 25.3125 5.52621 25.1708 5.56473 24.9681L6.69027 18.9827H14.8171L13.7204 24.8099C13.6786 25.0389 13.8309 25.2598 14.0636 25.3026C14.0893 25.265 14.1161 25.3125 14.1429 25.3125C14.3454 25.3125 14.5262 25.1708 14.5647 24.9681L15.6903 18.9827H21.8571C22.0932 18.9827 22.2857 18.7927 22.2857 18.5604C22.2857 18.328 22.0932 18.1391 21.8571 18.1391H15.8518L17.5977 8.9053H23.5714C23.8075 8.9053 24 8.71451 24 8.48216C24 8.20546 23.8071 8.01562 23.5714 8.01562ZM14.9786 18.1406H6.85179L8.59286 8.85937H16.7196L14.9786 18.1406Z" fill="black"/>
</svg>
