<svg width="23" height="23" viewBox="0 0 23 23" fill="none" xmlns="http://www.w3.org/2000/svg">
<g clip-path="url(#clip0_4_256)">
<path d="M22.6449 21.1582L16.6254 15.1387C17.9281 13.5439 18.6468 11.5359 18.6468 9.34375C18.6468 4.18223 14.4633 0 9.30309 0C4.14291 0 -0.000244141 4.18357 -0.000244141 9.34375C-0.000244141 14.5039 4.18289 18.6875 9.30309 18.6875C11.4948 18.6875 13.5055 17.9279 15.098 16.6642L21.1175 22.6837C21.3691 22.8967 21.6476 23 21.9216 23C22.1957 23 22.4733 22.8947 22.684 22.6842C23.1031 22.2633 23.1031 21.5805 22.6449 21.1582ZM2.15601 9.34375C2.15601 5.38074 5.38051 2.15625 9.34351 2.15625C13.3065 2.15625 16.531 5.38074 16.531 9.34375C16.531 13.3068 13.3065 16.5312 9.34351 16.5312C5.38051 16.5312 2.15601 13.3059 2.15601 9.34375Z" fill="black"/>
</g>
<defs>
<clipPath id="clip0_4_256">
<rect width="23" height="23" fill="white"/>
</clipPath>
</defs>
</svg>
