<?xml version="1.0" encoding="UTF-8"?>
<!DOCTYPE svg PUBLIC "-//W3C//DTD SVG 1.1//EN" "http://www.w3.org/Graphics/SVG/1.1/DTD/svg11.dtd">
<!-- Creator: CorelDRAW 2020 (64 Bit) -->
<svg xmlns="http://www.w3.org/2000/svg" xml:space="preserve" width="297mm" height="210mm" version="1.1" style="shape-rendering:geometricPrecision; text-rendering:geometricPrecision; image-rendering:optimizeQuality; fill-rule:evenodd; clip-rule:evenodd"
viewBox="0 0 29700 21000"
 xmlns:xlink="http://www.w3.org/1999/xlink"
 xmlns:xodm="http://www.corel.com/coreldraw/odm/2003">
 <defs>
  <style type="text/css">
   <![CDATA[
    .str0 {stroke:#296670;stroke-width:282.22;stroke-miterlimit:22.9256}
    .fil0 {fill:#296670}
    .fil1 {fill:#296670;fill-rule:nonzero}
   ]]>
  </style>
 </defs>
 <g id="Camada_x0020_1">
  <metadata id="CorelCorpID_0Corel-Layer"/>
  <path class="fil0 str0" d="M6889.53 1292.81l192.7 7181.89 -6604.64 1852.51 6610.76 2222.55 -171.09 7171.69 3893.02 -5808.28 54.13 21.49 0 -6636.94 -64.05 21.87 -3910.83 -6026.78zm5352.69 13188.79l5066.97 2011.4 -3382.06 -4675.03 -1684.91 0 0 2663.63zm948.82 -3916.18l4101.01 -5461.92 -5175.79 1766.87 2393.08 0 0 1252.57 -2267.12 0 0 2442.48 948.82 0z"/>
  <path class="fil1" d="M14192.94 13288.34l2542.83 -5562.42 580.08 0 2542.82 5562.42 -619.81 0 -2336.22 -5220.73 238.38 0 -2336.21 5220.73 -611.87 0zm1001.24 -1485.96l174.82 -476.77 3234.15 0 174.82 476.77 -3583.79 0zm6881.52 1485.96l-2463.37 -5562.42 635.71 0 2304.43 5236.62 -349.63 0 2320.32 -5236.62 595.98 0 -2463.36 5562.42 -580.08 0zm5379.66 47.69c-413.21,0 -809.2,-67.55 -1187.98,-202.64 -378.77,-135.09 -671.46,-308.58 -878.07,-520.48l230.44 -452.95c196.02,190.72 459.58,350.96 790.66,480.76 331.1,129.78 679.42,194.69 1044.95,194.69 349.64,0 634.38,-43.71 854.23,-131.12 219.84,-87.41 381.42,-205.28 484.73,-353.61 103.29,-148.34 154.95,-312.56 154.95,-492.67 0,-217.21 -62.25,-392.02 -186.75,-524.46 -124.49,-132.43 -287.38,-237.06 -488.69,-313.88 -201.31,-76.81 -423.8,-144.36 -667.49,-202.64 -243.69,-58.26 -487.37,-120.52 -731.06,-186.73 -243.69,-66.22 -467.51,-154.95 -671.46,-266.2 -203.97,-111.25 -368.18,-258.25 -492.68,-441.02 -124.49,-182.77 -186.74,-422.48 -186.74,-719.14 0,-275.47 72.84,-528.43 218.52,-758.88 145.69,-230.44 369.51,-415.85 671.47,-556.24 301.96,-140.39 688.68,-210.57 1160.17,-210.57 312.55,0 622.45,43.69 929.72,131.1 307.25,87.42 572.13,207.94 794.63,361.57l-198.66 468.83c-238.39,-158.93 -491.35,-275.47 -758.88,-349.64 -267.53,-74.17 -525.78,-111.25 -774.76,-111.25 -333.75,0 -609.22,45.03 -826.42,135.09 -217.2,90.05 -377.45,210.57 -480.76,361.56 -103.29,150.98 -154.95,321.82 -154.95,512.54 0,217.19 62.25,392.01 186.74,524.45 124.5,132.44 288.72,235.74 492.68,309.9 203.95,74.17 427.77,140.4 671.46,198.66 243.69,58.28 486.05,121.85 727.08,190.72 241.04,68.86 463.54,157.6 667.5,266.2 203.96,108.59 368.17,252.96 492.67,433.08 124.5,180.1 186.74,415.85 186.74,707.21 0,270.18 -74.17,520.49 -222.5,750.93 -148.33,230.44 -374.8,415.86 -679.41,556.25 -304.6,140.38 -695.3,210.58 -1172.08,210.58z"/>
 </g>
</svg>
