<svg width="19" height="18" viewBox="0 0 19 18" fill="none" xmlns="http://www.w3.org/2000/svg">
<path d="M9.50383 4.50781C7.09044 4.50781 5.14379 6.51172 5.14379 8.99609C5.14379 11.4805 7.09044 13.4844 9.50383 13.4844C11.9172 13.4844 13.8639 11.4805 13.8639 8.99609C13.8639 6.51172 11.9172 4.50781 9.50383 4.50781ZM9.50383 11.9141C7.94423 11.9141 6.66923 10.6055 6.66923 8.99609C6.66923 7.38672 7.94044 6.07812 9.50383 6.07812C11.0672 6.07812 12.3384 7.38672 12.3384 8.99609C12.3384 10.6055 11.0634 11.9141 9.50383 11.9141ZM15.0592 4.32422C15.0592 4.90625 14.6038 5.37109 14.0422 5.37109C13.4768 5.37109 13.0253 4.90234 13.0253 4.32422C13.0253 3.74609 13.4806 3.27734 14.0422 3.27734C14.6038 3.27734 15.0592 3.74609 15.0592 4.32422ZM17.9469 5.38672C17.8824 3.98438 17.5712 2.74219 16.5733 1.71875C15.5791 0.695312 14.3724 0.375 13.0101 0.304687C11.6061 0.222656 7.39781 0.222656 5.99379 0.304687C4.63531 0.371094 3.42861 0.691406 2.43062 1.71484C1.43263 2.73828 1.12526 3.98047 1.05696 5.38281C0.977271 6.82812 0.977271 11.1602 1.05696 12.6055C1.12147 14.0078 1.43263 15.25 2.43062 16.2734C3.42861 17.2969 4.63151 17.6172 5.99379 17.6875C7.39781 17.7695 11.6061 17.7695 13.0101 17.6875C14.3724 17.6211 15.5791 17.3008 16.5733 16.2734C17.5674 15.25 17.8786 14.0078 17.9469 12.6055C18.0266 11.1602 18.0266 6.83203 17.9469 5.38672ZM16.1331 14.1562C15.8371 14.9219 15.2641 15.5117 14.5166 15.8203C13.3971 16.2773 10.7409 16.1719 9.50383 16.1719C8.26678 16.1719 5.60673 16.2734 4.49111 15.8203C3.74736 15.5156 3.17437 14.9258 2.87459 14.1562C2.43062 13.0039 2.53307 10.2695 2.53307 8.99609C2.53307 7.72266 2.43441 4.98438 2.87459 3.83594C3.17057 3.07031 3.74356 2.48047 4.49111 2.17187C5.61053 1.71484 8.26678 1.82031 9.50383 1.82031C10.7409 1.82031 13.4009 1.71875 14.5166 2.17187C15.2603 2.47656 15.8333 3.06641 16.1331 3.83594C16.577 4.98828 16.4746 7.72266 16.4746 8.99609C16.4746 10.2695 16.577 13.0078 16.1331 14.1562Z" fill="black"/>
</svg>
